<svg width="12" height="16" viewBox="0 0 12 16" fill="none" xmlns="http://www.w3.org/2000/svg">
<path fill-rule="evenodd" clip-rule="evenodd" d="M6 2.00008C4.89543 2.00008 4 2.89551 4 4.00008V6.00008C4 6.00059 4 6.0011 4 6.0016C4.19815 6.00008 4.41199 6.00008 4.64299 6.00008H7.35702C7.58802 6.00008 7.80185 6.00008 8.00001 6.0016C8 6.0011 8 6.00059 8 6.00008V4.00008C8 2.89551 7.10457 2.00008 6 2.00008ZM9.32831 6.08229C9.33162 6.05535 9.33333 6.02792 9.33333 6.00008V4.00008C9.33333 2.15913 7.84095 0.666748 6 0.666748C4.15905 0.666748 2.66667 2.15913 2.66667 4.00008V6.00008C2.66667 6.02792 2.66837 6.05535 2.67169 6.08229C2.45706 6.11859 2.25421 6.17243 2.05772 6.25382C1.24096 6.59213 0.592048 7.24104 0.253735 8.0578C0.112986 8.3976 0.0546095 8.75646 0.0269201 9.16228C-8.14597e-06 9.55696 -4.48931e-06 10.0419 1.20119e-07 10.6431V10.6904C-4.48931e-06 11.2916 -8.14597e-06 11.7765 0.0269201 12.1712C0.0546096 12.577 0.112986 12.9359 0.253735 13.2757C0.592048 14.0925 1.24096 14.7414 2.05772 15.0797C2.39752 15.2204 2.75638 15.2788 3.1622 15.3065C3.55688 15.3334 4.04181 15.3334 4.64299 15.3334H7.35701C7.95819 15.3334 8.44312 15.3334 8.8378 15.3065C9.24362 15.2788 9.60248 15.2204 9.94228 15.0797C10.759 14.7414 11.408 14.0925 11.7463 13.2757C11.887 12.9359 11.9454 12.577 11.9731 12.1712C12 11.7765 12 11.2916 12 10.6904V10.6431C12 10.0419 12 9.55696 11.9731 9.16228C11.9454 8.75646 11.887 8.3976 11.7463 8.0578C11.408 7.24104 10.759 6.59213 9.94228 6.25382C9.74579 6.17243 9.54294 6.11858 9.32831 6.08229ZM3.25297 7.35724C2.91502 7.3803 2.71822 7.42342 2.56797 7.48565C2.07791 7.68864 1.68856 8.07799 1.48557 8.56805C1.42334 8.7183 1.38022 8.9151 1.35716 9.25305C1.33369 9.59698 1.33333 10.0364 1.33333 10.6667C1.33333 11.2971 1.33369 11.7365 1.35716 12.0804C1.38022 12.4184 1.42334 12.6152 1.48557 12.7654C1.68856 13.2555 2.07791 13.6449 2.56797 13.8478C2.71822 13.9101 2.91502 13.9532 3.25297 13.9763C3.5969 13.9997 4.03629 14.0001 4.66667 14.0001H7.33333C7.96371 14.0001 8.40311 13.9997 8.74704 13.9763C9.08498 13.9532 9.28178 13.9101 9.43203 13.8478C9.92209 13.6449 10.3114 13.2555 10.5144 12.7654C10.5767 12.6152 10.6198 12.4184 10.6428 12.0804C10.6663 11.7365 10.6667 11.2971 10.6667 10.6667C10.6667 10.0364 10.6663 9.59698 10.6428 9.25305C10.6198 8.9151 10.5767 8.7183 10.5144 8.56805C10.3114 8.07799 9.92209 7.68864 9.43203 7.48565C9.28178 7.42342 9.08498 7.3803 8.74704 7.35724C8.40311 7.33378 7.96371 7.33341 7.33333 7.33341H4.66667C4.03629 7.33341 3.5969 7.33378 3.25297 7.35724ZM6 9.33341C6.36819 9.33341 6.66667 9.63189 6.66667 10.0001V11.3334C6.66667 11.7016 6.36819 12.0001 6 12.0001C5.63181 12.0001 5.33333 11.7016 5.33333 11.3334V10.0001C5.33333 9.63189 5.63181 9.33341 6 9.33341Z" fill="#5D5C5C"/>
</svg>
