<svg width="12" height="13" viewBox="0 0 12 13" fill="none" xmlns="http://www.w3.org/2000/svg">
<path fill-rule="evenodd" clip-rule="evenodd" d="M5.99984 1.33333C4.89527 1.33333 3.99984 2.22876 3.99984 3.33333C3.99984 4.4379 4.89527 5.33333 5.99984 5.33333C7.10441 5.33333 7.99984 4.4379 7.99984 3.33333C7.99984 2.22876 7.10441 1.33333 5.99984 1.33333ZM2.6665 3.33333C2.6665 1.49238 4.15889 0 5.99984 0C7.84079 0 9.33317 1.49238 9.33317 3.33333C9.33317 5.17428 7.84079 6.66667 5.99984 6.66667C4.15889 6.66667 2.6665 5.17428 2.6665 3.33333ZM2.97056 9.15096C2.26773 9.46306 1.99984 9.85721 1.99984 10.3333C1.99984 10.4824 2.02634 10.5668 2.06469 10.628C2.10306 10.6892 2.1946 10.7928 2.4413 10.9044C2.96859 11.143 4.01056 11.3333 5.99984 11.3333C7.98911 11.3333 9.03109 11.143 9.55838 10.9044C9.80508 10.7928 9.89661 10.6892 9.93499 10.628C9.97333 10.5668 9.99984 10.4824 9.99984 10.3333C9.99984 9.85721 9.73194 9.46306 9.02911 9.15096C8.30746 8.83051 7.24794 8.66667 5.99984 8.66667C4.75173 8.66667 3.69222 8.83051 2.97056 9.15096ZM2.42945 7.93237C3.3968 7.50282 4.67061 7.33333 5.99984 7.33333C7.32906 7.33333 8.60288 7.50282 9.57023 7.93237C10.5564 8.37028 11.3332 9.14279 11.3332 10.3333C11.3332 10.6445 11.2763 10.9985 11.0647 11.3362C10.8531 11.6738 10.5279 11.9292 10.108 12.1192C9.30192 12.4839 8.01056 12.6667 5.99984 12.6667C3.98911 12.6667 2.69776 12.4839 1.89171 12.1192C1.47174 11.9292 1.14661 11.6738 0.934985 11.3362C0.723331 10.9985 0.666504 10.6445 0.666504 10.3333C0.666504 9.14279 1.44328 8.37028 2.42945 7.93237Z" fill="#5D5C5C"/>
</svg>
