<svg width="37" height="32" viewBox="0 0 37 32" fill="none" xmlns="http://www.w3.org/2000/svg">
<path fill-rule="evenodd" clip-rule="evenodd" d="M0.666504 2.00065C0.666504 1.08018 1.4127 0.333984 2.33317 0.333984C5.04119 0.333984 7.44538 2.06683 8.30173 4.63588L8.53444 5.33398L29.0498 5.33398C30.143 5.33395 31.0728 5.33392 31.8251 5.40113C32.6082 5.47109 33.3911 5.62586 34.1066 6.06039C35.111 6.67037 35.8684 7.61462 36.246 8.72741C36.515 9.52012 36.4962 10.3179 36.3946 11.0976C36.297 11.8466 36.0953 12.7541 35.8581 13.8213L35.3478 16.1179C35.1065 17.2037 34.9057 18.1075 34.6842 18.8412C34.4524 19.6088 34.1675 20.3011 33.705 20.934C33.0095 21.8857 32.0742 22.636 30.9944 23.1084C30.2762 23.4226 29.5385 23.5506 28.7389 23.6103C27.9746 23.6674 27.049 23.6673 25.9367 23.6673H17.063C15.9507 23.6673 15.025 23.6674 14.2608 23.6103C13.4611 23.5506 12.7235 23.4226 12.0053 23.1084C10.9254 22.636 9.99014 21.8857 9.29471 20.934C8.83219 20.3011 8.54723 19.6088 8.31549 18.8412C8.09399 18.1075 7.8932 17.2038 7.65192 16.118L5.72484 7.44613L5.13946 5.68997C4.73682 4.48206 3.60642 3.66732 2.33317 3.66732C1.4127 3.66732 0.666504 2.92113 0.666504 2.00065ZM9.41086 8.66732L10.8927 15.3354C11.1505 16.4959 11.3253 17.2773 11.5066 17.8778C11.6816 18.4577 11.8315 18.7559 11.986 18.9673C12.3337 19.4432 12.8014 19.8183 13.3413 20.0545C13.5813 20.1595 13.9049 20.2411 14.5089 20.2862C15.1344 20.3329 15.9352 20.334 17.124 20.334H25.8757C27.0645 20.334 27.8652 20.3329 28.4907 20.2862C29.0948 20.2411 29.4184 20.1595 29.6583 20.0545C30.1983 19.8183 30.6659 19.4432 31.0136 18.9673C31.1682 18.7559 31.318 18.4577 31.4931 17.8778C31.6744 17.2773 31.8491 16.4959 32.107 15.3354L32.5882 13.17C32.8457 12.0115 33.0132 11.2504 33.0892 10.6669C33.1634 10.0973 33.1202 9.88919 33.0894 9.79846C32.9635 9.42753 32.7111 9.11278 32.3763 8.90945C32.2944 8.85972 32.1006 8.77235 31.5285 8.72124C30.9424 8.66888 30.163 8.66732 28.9763 8.66732H9.41086Z" fill="white"/>
<path d="M17.3332 28.6673C17.3332 30.5083 15.8408 32.0007 13.9998 32.0007C12.1589 32.0007 10.6665 30.5083 10.6665 28.6673C10.6665 26.8264 12.1589 25.334 13.9998 25.334C15.8408 25.334 17.3332 26.8264 17.3332 28.6673Z" fill="white"/>
<path d="M28.9998 32.0007C30.8408 32.0007 32.3332 30.5083 32.3332 28.6673C32.3332 26.8264 30.8408 25.334 28.9998 25.334C27.1589 25.334 25.6665 26.8264 25.6665 28.6673C25.6665 30.5083 27.1589 32.0007 28.9998 32.0007Z" fill="white"/>
</svg>
