<svg width="26" height="23" viewBox="0 0 26 23" fill="none" xmlns="http://www.w3.org/2000/svg">
<path fill-rule="evenodd" clip-rule="evenodd" d="M0.167969 1.50016C0.167969 0.855831 0.690303 0.333496 1.33464 0.333496C3.23025 0.333496 4.91319 1.54649 5.51263 3.34483L5.67552 3.8335L20.0363 3.83349C20.8015 3.83347 21.4523 3.83345 21.979 3.8805C22.5272 3.92947 23.0752 4.03781 23.576 4.34198C24.2791 4.76897 24.8093 5.42994 25.0736 6.20889C25.2619 6.76379 25.2488 7.32225 25.1776 7.86802C25.1093 8.39231 24.9681 9.0276 24.8021 9.77461L24.4448 11.3823C24.276 12.1423 24.1354 12.7749 23.9803 13.2885C23.8181 13.8259 23.6187 14.3105 23.2949 14.7535C22.8081 15.4197 22.1534 15.9449 21.3975 16.2756C20.8947 16.4955 20.3784 16.5851 19.8187 16.6269C19.2837 16.6669 18.6357 16.6668 17.8571 16.6668H11.6455C10.8669 16.6668 10.2189 16.6669 9.68395 16.6269C9.12421 16.5851 8.60787 16.4955 8.10513 16.2756C7.34923 15.9449 6.69451 15.4197 6.20771 14.7535C5.88395 14.3105 5.68448 13.8259 5.52226 13.2885C5.36721 12.7749 5.22666 12.1424 5.05776 11.3823L3.70881 5.312L3.29904 4.08269C3.01719 3.23715 2.22591 2.66683 1.33464 2.66683C0.690303 2.66683 0.167969 2.14449 0.167969 1.50016ZM6.28902 6.16683L7.32628 10.8345C7.5068 11.6468 7.62913 12.1938 7.75602 12.6142C7.87857 13.0201 7.98346 13.2288 8.09164 13.3768C8.33504 13.7099 8.6624 13.9725 9.04035 14.1379C9.20833 14.2114 9.43482 14.2685 9.85767 14.3001C10.2955 14.3327 10.856 14.3335 11.6882 14.3335H17.8144C18.6466 14.3335 19.2071 14.3327 19.6449 14.3001C20.0678 14.2685 20.2943 14.2114 20.4623 14.1379C20.8402 13.9725 21.1676 13.7099 21.411 13.3768C21.5191 13.2288 21.624 13.0201 21.7466 12.6142C21.8735 12.1938 21.9958 11.6468 22.1763 10.8345L22.5132 9.31868C22.6934 8.50776 22.8106 7.97499 22.8639 7.56652C22.9158 7.16783 22.8855 7.02214 22.864 6.95863C22.7759 6.69898 22.5992 6.47865 22.3648 6.33632C22.3075 6.30151 22.1718 6.24035 21.7714 6.20458C21.3611 6.16792 20.8155 6.16683 19.9848 6.16683H6.28902Z" fill="black"/>
<path d="M11.8346 20.1668C11.8346 21.4555 10.79 22.5002 9.5013 22.5002C8.21264 22.5002 7.16797 21.4555 7.16797 20.1668C7.16797 18.8782 8.21264 17.8335 9.5013 17.8335C10.79 17.8335 11.8346 18.8782 11.8346 20.1668Z" fill="black"/>
<path d="M20.0013 22.5002C21.29 22.5002 22.3346 21.4555 22.3346 20.1668C22.3346 18.8782 21.29 17.8335 20.0013 17.8335C18.7126 17.8335 17.668 18.8782 17.668 20.1668C17.668 21.4555 18.7126 22.5002 20.0013 22.5002Z" fill="black"/>
</svg>
