<svg width="24" height="22" viewBox="0 0 24 22" fill="none" xmlns="http://www.w3.org/2000/svg">
<path fill-rule="evenodd" clip-rule="evenodd" d="M7.07682 0.666504C3.29185 0.666504 0.332031 3.95629 0.332031 7.84844C0.332031 9.87282 0.655989 11.5398 1.86366 13.2938C3.01595 14.9675 4.93209 16.6564 7.90526 18.8846L11.9987 21.6665L16.0918 18.8849C19.0652 16.6566 20.9814 14.9675 22.1337 13.2939C23.3414 11.5398 23.6654 9.87282 23.6654 7.84844C23.6654 3.95629 20.7055 0.666506 16.9206 0.666506C15.0215 0.666506 13.3775 1.44024 11.9987 2.84027C10.6199 1.44024 8.97593 0.666504 7.07682 0.666504ZM7.07682 2.99984C4.73679 2.99984 2.66536 5.08292 2.66536 7.84844C2.66536 8.48891 2.70161 9.05189 2.79198 9.57112C2.94334 10.4408 3.24653 11.1878 3.78552 11.9706C4.70157 13.3011 6.33874 14.7948 9.30552 17.0182L11.9987 19.0408L14.6919 17.0182C17.6587 14.7948 19.2958 13.3011 20.2119 11.9706C21.0727 10.7204 21.332 9.5617 21.332 7.84844C21.332 5.08292 19.2606 2.99984 16.9206 2.99984C15.479 2.99984 14.1572 3.68382 12.9359 5.33119C12.7159 5.62803 12.3682 5.80307 11.9987 5.80307C11.6292 5.80307 11.2815 5.62803 11.0615 5.33119C9.84023 3.68382 8.51841 2.99984 7.07682 2.99984Z" fill="black"/>
</svg>
