<svg width="34" height="31" viewBox="0 0 34 31" fill="none" xmlns="http://www.w3.org/2000/svg">
<path fill-rule="evenodd" clip-rule="evenodd" d="M9.96891 0.666016C4.56181 0.666016 0.333496 5.36571 0.333496 10.9259C0.333496 13.8179 0.796293 16.1993 2.52154 18.7051C4.16767 21.0959 6.905 23.5088 11.1524 26.6919L17.0002 30.666L22.8474 26.6923C27.0951 23.509 29.8326 21.096 31.4788 18.7051C33.204 16.1993 33.6668 13.8179 33.6668 10.9259C33.6668 5.36571 29.4385 0.666019 24.0314 0.666019C21.3184 0.666019 18.9698 1.77136 17.0002 3.7714C15.0305 1.77136 12.6819 0.666016 9.96891 0.666016ZM9.96891 3.99935C6.62601 3.99935 3.66683 6.97518 3.66683 10.9259C3.66683 11.8409 3.71861 12.6451 3.84771 13.3869C4.06394 14.6293 4.49707 15.6964 5.26706 16.8148C6.5757 18.7155 8.91451 20.8493 13.1528 24.0255L17.0002 26.915L20.8476 24.0255C25.0858 20.8493 27.4246 18.7155 28.7333 16.8148C29.963 15.0288 30.3335 13.3734 30.3335 10.9259C30.3335 6.97518 27.3743 3.99935 24.0314 3.99935C21.972 3.99935 20.0837 4.97647 18.339 7.32986C18.0247 7.75391 17.528 8.00397 17.0002 8.00397C16.4723 8.00397 15.9756 7.75391 15.6613 7.32986C13.9166 4.97647 12.0283 3.99935 9.96891 3.99935Z" fill="white"/>
</svg>
