<svg width="34" height="34" viewBox="0 0 34 34" fill="none" xmlns="http://www.w3.org/2000/svg">
<path fill-rule="evenodd" clip-rule="evenodd" d="M10.3335 13.6673C10.3335 9.98542 13.3183 7.00065 17.0002 7.00065C20.6821 7.00065 23.6668 9.98542 23.6668 13.6673C23.6668 17.3492 20.6821 20.334 17.0002 20.334C13.3183 20.334 10.3335 17.3492 10.3335 13.6673ZM17.0002 10.334C15.1592 10.334 13.6668 11.8264 13.6668 13.6673C13.6668 15.5083 15.1592 17.0007 17.0002 17.0007C18.8411 17.0007 20.3335 15.5083 20.3335 13.6673C20.3335 11.8264 18.8411 10.334 17.0002 10.334Z" fill="white"/>
<path fill-rule="evenodd" clip-rule="evenodd" d="M0.333496 17.0007C0.333496 7.79591 7.79542 0.333984 17.0002 0.333984C26.2049 0.333984 33.6668 7.79591 33.6668 17.0007C33.6668 26.2054 26.2049 33.6673 17.0002 33.6673C7.79542 33.6673 0.333496 26.2054 0.333496 17.0007ZM17.0002 3.66732C9.63637 3.66732 3.66683 9.63685 3.66683 17.0007C3.66683 20.6463 5.12997 23.9502 7.50106 26.3572C8.09113 25.1923 9.13697 24.2685 10.2807 23.615C12.0835 22.5848 14.4627 22.0007 17.0002 22.0007C19.5377 22.0007 21.9169 22.5848 23.7196 23.615C24.8634 24.2685 25.9092 25.1923 26.4993 26.3572C28.8704 23.9502 30.3335 20.6463 30.3335 17.0007C30.3335 9.63685 24.364 3.66732 17.0002 3.66732ZM23.6653 28.5511C23.6665 28.523 23.6668 28.4873 23.6668 28.4292C23.6668 27.9705 23.3263 27.2294 22.0658 26.5091C20.8525 25.8158 19.065 25.334 17.0002 25.334C14.9353 25.334 13.1478 25.8158 11.9345 26.5091C10.674 27.2294 10.3335 27.9705 10.3335 28.4292C10.3335 28.4873 10.3338 28.523 10.335 28.5511C12.2958 29.685 14.5722 30.334 17.0002 30.334C19.4281 30.334 21.7045 29.685 23.6653 28.5511Z" fill="white"/>
</svg>
